<svg width="17" height="19" viewBox="0 0 17 19" fill="none" xmlns="http://www.w3.org/2000/svg">
<path d="M6.84737 4.00393L7.59441 3.24313V7.60817C7.59441 7.86039 7.69404 8.10228 7.87138 8.28062C8.04872 8.45897 8.28924 8.55916 8.54004 8.55916C8.79083 8.55916 9.03136 8.45897 9.2087 8.28062C9.38604 8.10228 9.48566 7.86039 9.48566 7.60817V3.24313L10.2327 4.00393C10.3206 4.09306 10.4252 4.16381 10.5404 4.21209C10.6557 4.26037 10.7793 4.28523 10.9041 4.28523C11.0289 4.28523 11.1525 4.26037 11.2678 4.21209C11.383 4.16381 11.4876 4.09306 11.5755 4.00393C11.6641 3.91552 11.7345 3.81034 11.7825 3.69445C11.8305 3.57856 11.8552 3.45426 11.8552 3.32872C11.8552 3.20318 11.8305 3.07888 11.7825 2.96299C11.7345 2.84711 11.6641 2.74193 11.5755 2.65352L9.21143 0.27605C9.1215 0.189471 9.01545 0.121604 8.89938 0.0763419C8.66915 -0.0187741 8.41092 -0.0187741 8.1807 0.0763419C8.06462 0.121604 7.95858 0.189471 7.86864 0.27605L5.50458 2.65352C5.32651 2.8326 5.22648 3.07547 5.22648 3.32872C5.22648 3.58197 5.32651 3.82485 5.50458 4.00393C5.68264 4.183 5.92415 4.2836 6.17597 4.2836C6.4278 4.2836 6.6693 4.183 6.84737 4.00393ZM14.2138 5.28776C14.1244 5.19784 14.0182 5.12652 13.9014 5.07785C13.7846 5.02919 13.6594 5.00414 13.5329 5.00414C13.4065 5.00414 13.2813 5.02919 13.1645 5.07785C13.0476 5.12652 12.9415 5.19784 12.8521 5.28776C12.7627 5.37768 12.6918 5.48443 12.6434 5.60191C12.595 5.71939 12.5701 5.84531 12.5701 5.97247C12.5701 6.09963 12.595 6.22555 12.6434 6.34304C12.6918 6.46052 12.7627 6.56727 12.8521 6.65718C13.7053 7.51493 14.2864 8.60788 14.522 9.7978C14.7575 10.9877 14.6368 12.2211 14.1753 13.3421C13.7137 14.463 12.9319 15.4212 11.9289 16.0953C10.9258 16.7694 9.74646 17.1292 8.54004 17.1292C7.33362 17.1292 6.15429 16.7694 5.15122 16.0953C4.14815 15.4212 3.36639 14.463 2.90482 13.3421C2.44324 12.2211 2.32259 10.9877 2.55811 9.7978C2.79364 8.60788 3.37476 7.51493 4.22798 6.65718C4.31739 6.56727 4.38832 6.46052 4.43671 6.34304C4.4851 6.22555 4.51 6.09963 4.51 5.97247C4.51 5.84531 4.4851 5.71939 4.43671 5.60191C4.38832 5.48443 4.31739 5.37768 4.22798 5.28776C4.13857 5.19784 4.03243 5.12652 3.91561 5.07785C3.79879 5.02919 3.67358 5.00414 3.54713 5.00414C3.42069 5.00414 3.29548 5.02919 3.17866 5.07785C3.06184 5.12652 2.95569 5.19784 2.86628 5.28776C1.75225 6.41483 0.995081 7.84845 0.690277 9.40778C0.385473 10.9671 0.546691 12.5823 1.1536 14.0496C1.7605 15.5169 2.7859 16.7706 4.10046 17.6525C5.41501 18.5344 6.95983 19.005 8.54004 19.005C10.1202 19.005 11.6651 18.5344 12.9796 17.6525C14.2942 16.7706 15.3196 15.5169 15.9265 14.0496C16.5334 12.5823 16.6946 10.9671 16.3898 9.40778C16.085 7.84845 15.3278 6.41483 14.2138 5.28776Z" fill="#56BA28"/>
</svg>
